<svg xmlns="http://www.w3.org/2000/svg" xmlns:xlink="http://www.w3.org/1999/xlink" width="40" zoomAndPan="magnify" viewBox="0 0 30 30.000001" height="40" preserveAspectRatio="xMidYMid meet" version="1.0"><defs><clipPath id="70d58e9794"><path d="M 7.871094 2.902344 L 22.386719 2.902344 L 22.386719 26.128906 L 7.871094 26.128906 Z M 7.871094 2.902344 " clip-rule="nonzero"/></clipPath></defs><g clip-path="url(#70d58e9794)"><path fill="#000000" d="M 16.605469 22.289062 L 13.714844 22.289062 L 13.714844 24.296875 C 12.199219 24.394531 10.679688 24.644531 9.160156 25.050781 L 9.160156 26.082031 L 21.09375 26.082031 L 21.09375 25.050781 C 19.597656 24.644531 18.101562 24.398438 16.605469 24.296875 Z M 13.683594 14.675781 C 13.945312 14.675781 14.15625 14.882812 14.15625 15.140625 C 14.15625 15.398438 13.945312 15.605469 13.683594 15.605469 L 10.074219 15.605469 C 10.589844 17.90625 12.65625 19.628906 15.128906 19.628906 C 17.597656 19.628906 19.664062 17.90625 20.179688 15.605469 L 16.570312 15.605469 C 16.308594 15.605469 16.097656 15.398438 16.097656 15.140625 C 16.097656 14.882812 16.308594 14.675781 16.570312 14.675781 L 20.300781 14.675781 C 20.304688 14.609375 20.304688 14.546875 20.304688 14.480469 L 20.304688 13.640625 L 16.570312 13.640625 C 16.308594 13.640625 16.097656 13.433594 16.097656 13.175781 C 16.097656 12.917969 16.308594 12.707031 16.570312 12.707031 L 20.304688 12.707031 L 20.304688 11.675781 L 16.570312 11.675781 C 16.308594 11.675781 16.097656 11.46875 16.097656 11.210938 C 16.097656 10.953125 16.308594 10.742188 16.570312 10.742188 L 20.304688 10.742188 L 20.304688 9.710938 L 16.570312 9.710938 C 16.308594 9.710938 16.097656 9.503906 16.097656 9.246094 C 16.097656 8.988281 16.308594 8.777344 16.570312 8.777344 L 20.304688 8.777344 L 20.304688 8.09375 C 20.304688 7.976562 20.300781 7.859375 20.292969 7.746094 L 16.570312 7.746094 C 16.308594 7.746094 16.097656 7.535156 16.097656 7.277344 C 16.097656 7.019531 16.308594 6.8125 16.570312 6.8125 L 20.144531 6.8125 C 19.570312 4.59375 17.542969 2.949219 15.125 2.949219 C 12.710938 2.949219 10.683594 4.59375 10.109375 6.8125 L 13.683594 6.8125 C 13.945312 6.8125 14.15625 7.023438 14.15625 7.28125 C 14.15625 7.539062 13.945312 7.746094 13.683594 7.746094 L 9.960938 7.746094 C 9.953125 7.863281 9.949219 7.976562 9.949219 8.097656 L 9.949219 8.777344 L 13.683594 8.777344 C 13.945312 8.777344 14.15625 8.988281 14.15625 9.246094 C 14.15625 9.503906 13.945312 9.710938 13.683594 9.710938 L 9.949219 9.710938 L 9.949219 10.746094 L 13.683594 10.746094 C 13.945312 10.746094 14.15625 10.953125 14.15625 11.210938 C 14.15625 11.46875 13.945312 11.675781 13.683594 11.675781 L 9.949219 11.675781 L 9.949219 12.710938 L 13.683594 12.710938 C 13.945312 12.710938 14.15625 12.917969 14.15625 13.175781 C 14.15625 13.433594 13.945312 13.640625 13.683594 13.640625 L 9.949219 13.640625 L 9.949219 14.484375 C 9.949219 14.546875 9.949219 14.609375 9.953125 14.675781 Z M 21.34375 13.359375 L 21.34375 14.484375 C 21.34375 17.890625 18.554688 20.660156 15.128906 20.660156 C 11.699219 20.660156 8.910156 17.890625 8.910156 14.480469 L 8.910156 13.359375 L 7.871094 13.359375 L 7.871094 14.480469 C 7.871094 18.457031 11.125 21.691406 15.125 21.691406 C 19.128906 21.691406 22.382812 18.457031 22.382812 14.480469 L 22.382812 13.359375 Z M 21.34375 13.359375 " fill-opacity="1" fill-rule="nonzero"/></g></svg>